<svg width="400" height="400" viewBox="0 0 400 400" fill="none" xmlns="http://www.w3.org/2000/svg">
<rect width="400" height="400" rx="25" fill="white"/>
<rect x="31" y="200.125" width="180" height="180" rx="40" transform="rotate(-44.9309 31 200.125)" fill="#27272A"/>
<rect x="114" y="200.125" width="180" height="180" rx="40" transform="rotate(-44.9309 114 200.125)" fill="#09090B"/>
<path d="M195.823 149.649L152.665 241.882C151.424 244.535 153.36 247.578 156.288 247.578H171.267C172.867 247.578 174.313 246.624 174.943 245.153L179.295 234.999C179.673 234.118 180.355 233.4 181.217 232.983C192.617 227.47 200.147 224.679 212.57 221.955C214.413 221.551 216.279 222.516 217.038 224.243L226.24 245.187C226.879 246.64 228.315 247.578 229.902 247.578H244.067C246.904 247.578 248.842 244.704 247.744 242.089C245.033 235.623 242.593 230.387 238.812 223.225C237.502 220.744 239.05 217.686 241.856 217.665C243.023 217.656 244.254 217.693 245.648 217.771C247.99 217.904 250 216.078 250 213.732V208.273C250 206.175 248.375 204.426 246.28 204.327C228.467 203.483 215.808 206.224 196.943 212.918C193.639 214.09 190.465 210.797 191.816 207.562L196.128 197.247C197.432 194.125 201.782 193.932 203.358 196.926L205.684 201.346C206.641 203.164 208.817 203.947 210.751 203.249C214.645 201.842 217.758 201.087 221.281 200.647C224.121 200.292 225.921 197.311 224.684 194.73L203.053 149.615C201.594 146.571 197.254 146.592 195.823 149.649Z" fill="white"/>
</svg>
